<svg width="1104" height="586" xmlns="http://www.w3.org/2000/svg" xmlns:xlink="http://www.w3.org/1999/xlink" overflow="hidden"><defs><clipPath id="clip0"><rect x="0" y="0" width="1104" height="586"/></clipPath></defs><g clip-path="url(#clip0)"><rect x="0" y="0" width="1104" height="586.334" fill="#FFFFFF"/><path d="M445.068 116.594C439.739 116.594 435.509 117.837 432.379 120.322 429.248 122.808 427.683 126.202 427.683 130.505 427.683 152.829 427.683 175.153 427.683 197.478 427.683 202.067 429.215 205.605 432.279 208.09 435.343 210.576 439.606 211.819 445.068 211.819 450.663 211.819 454.959 210.576 457.957 208.09 460.954 205.605 462.453 202.067 462.453 197.478 462.453 175.153 462.453 152.829 462.453 130.505 462.453 126.107 460.954 122.689 457.957 120.251 454.959 117.813 450.663 116.594 445.068 116.594ZM287.912 115.59C281.384 115.59 276.322 117.382 272.725 120.968 269.128 124.553 267.329 129.596 267.329 136.098 267.329 141.308 267.329 146.519 267.329 151.73 281.318 151.73 295.306 151.73 309.294 151.73 309.294 146.089 309.294 140.448 309.294 134.807 309.294 128.688 307.429 123.955 303.699 120.609 299.968 117.263 294.706 115.59 287.912 115.59ZM445.268 87.4811C458.057 87.4811 469.014 89.0825 478.14 92.2854 487.265 95.4883 494.193 100.173 498.922 106.34 503.652 112.506 506.016 119.94 506.016 128.64 506.016 152.303 506.016 175.966 506.016 199.629 506.016 208.329 503.652 215.787 498.922 222.001 494.193 228.216 487.265 232.948 478.14 236.199 469.014 239.45 458.057 241.075 445.268 241.075 432.478 241.075 421.521 239.426 412.395 236.127 403.27 232.829 396.309 228.048 391.513 221.786 386.717 215.524 384.319 207.995 384.319 199.199 384.319 175.679 384.319 152.16 384.319 128.64 384.319 119.94 386.717 112.506 391.513 106.34 396.309 100.173 403.27 95.4883 412.395 92.2854 421.521 89.0825 432.478 87.4811 445.268 87.4811ZM287.912 87.4811C301.234 87.4811 312.658 89.3455 322.183 93.0742 331.708 96.8029 338.969 102.229 343.964 109.351 348.96 116.474 351.458 125.103 351.458 135.237 351.458 148.813 351.458 162.39 351.458 175.966 323.415 175.966 295.372 175.966 267.329 175.966 267.329 182.133 267.329 188.299 267.329 194.466 267.329 200.107 269.261 204.505 273.124 207.66 276.988 210.815 282.45 212.393 289.511 212.393 296.038 212.393 301.067 211.174 304.598 208.736 308.128 206.298 309.893 202.88 309.893 198.482 309.893 197.43 309.893 196.378 309.893 195.327 323.948 195.374 338.003 195.422 352.058 195.47 352.058 196.331 352.058 197.191 352.058 198.051 352.058 211.723 346.596 222.312 335.671 229.817 324.747 237.322 309.36 241.075 289.511 241.075 275.922 241.075 264.332 239.211 254.74 235.482 245.148 231.753 237.821 226.327 232.759 219.205 227.696 212.082 225.165 203.501 225.165 193.462 225.165 174.914 225.165 156.367 225.165 137.819 225.165 127.206 227.63 118.123 232.559 110.57 237.488 103.017 244.649 97.2809 254.041 93.361 263.433 89.4411 274.723 87.4811 287.912 87.4811ZM1.84306e-05 30.4033C13.7217 30.4033 27.4435 30.4033 41.1652 30.4033 58.9501 71.0844 76.7351 111.765 94.52 152.447 112.771 111.765 131.022 71.0844 149.274 30.4033 162.596 30.4033 175.918 30.4033 189.24 30.4033 189.24 99.9101 189.24 169.417 189.24 238.924 176.051 238.924 162.862 238.924 149.673 238.924 149.673 193.888 149.673 148.851 149.673 103.815 135.419 136.996 121.164 170.177 106.91 203.358 98.7165 203.358 90.5234 203.358 82.3303 203.358 68.4088 171.821 54.4872 140.284 40.5657 108.747 40.5657 152.139 40.5657 195.532 40.5657 238.924 27.0438 238.924 13.5219 238.924 1.84306e-05 238.924 1.84306e-05 169.417 1.84306e-05 99.9101 1.84306e-05 30.4033ZM312.491 1.85469e-05C323.282 6.0233 334.073 12.0466 344.864 18.0699 327.212 34.132 309.56 50.1941 291.909 66.2562 282.383 61.1412 272.858 56.0262 263.333 50.9111 279.719 33.9408 296.105 16.9704 312.491 1.85469e-05Z" fill="#3B2114" fill-rule="evenodd" transform="matrix(1 0 0 1.00057 205.426 27.5663)"/><text fill="#000000" fill-opacity="0" font-family="Arial,Arial_MSFontService,sans-serif" font-size="241.075" x="1.84306e-05" y="210.941">Méo</text><path d="M275.552 107.099C271.29 107.099 267.906 108.606 265.402 111.619 262.898 114.633 261.646 118.748 261.646 123.964 261.646 151.028 261.646 178.093 261.646 205.157 261.646 210.721 262.871 215.009 265.322 218.023 267.773 221.036 271.183 222.543 275.552 222.543 280.028 222.543 283.464 221.036 285.862 218.023 288.26 215.009 289.458 210.721 289.458 205.157 289.458 178.093 289.458 151.028 289.458 123.964 289.458 118.632 288.26 114.488 285.862 111.532 283.464 108.577 280.028 107.099 275.552 107.099ZM503.471 105.882C498.25 105.882 494.201 108.055 491.323 112.402 488.446 116.748 487.008 122.862 487.008 130.744 487.008 137.061 487.008 143.378 487.008 149.695 498.197 149.695 509.386 149.695 520.574 149.695 520.574 142.857 520.574 136.018 520.574 129.179 520.574 121.761 519.083 116.024 516.099 111.967 513.115 107.91 508.906 105.882 503.471 105.882ZM503.471 71.805C514.128 71.805 523.265 74.0652 530.884 78.5856 538.503 83.106 544.311 89.6838 548.307 98.3189 552.303 106.954 554.301 117.415 554.301 129.701 554.301 146.16 554.301 162.619 554.301 179.078 531.87 179.078 509.439 179.078 487.008 179.078 487.008 186.554 487.008 194.03 487.008 201.506 487.008 208.345 488.553 213.676 491.643 217.501 494.733 221.326 499.102 223.239 504.75 223.239 509.972 223.239 513.994 221.761 516.818 218.805 519.642 215.85 521.054 211.706 521.054 206.374 521.054 205.099 521.054 203.824 521.054 202.549 532.296 202.607 543.538 202.665 554.781 202.723 554.781 203.766 554.781 204.809 554.781 205.853 554.781 222.427 550.412 235.264 541.674 244.363 532.936 253.462 520.628 258.011 504.75 258.011 493.881 258.011 484.61 255.751 476.938 251.23 469.265 246.71 463.404 240.132 459.355 231.497 455.306 222.862 453.281 212.459 453.281 200.289 453.281 177.803 453.281 155.317 453.281 132.831 453.281 119.965 455.252 108.953 459.195 99.7967 463.138 90.64 468.866 83.6855 476.378 78.9333 483.891 74.1811 492.922 71.805 503.471 71.805ZM433.285 71.805C433.285 84.9026 433.285 98.0002 433.285 111.098 432.219 111.098 431.047 111.098 429.768 111.098 428.49 111.098 426.998 111.098 425.293 111.098 414.423 111.098 405.952 114.256 399.878 120.573 393.804 126.89 390.714 135.554 390.607 146.566 390.607 182.845 390.607 219.124 390.607 255.403 378.938 255.403 367.27 255.403 355.602 255.403 355.602 195.247 355.602 135.091 355.602 74.9345 367.27 74.9345 378.938 74.9345 390.607 74.9345 390.607 83.3203 390.607 91.706 390.607 100.092 390.857 99.6222 391.106 99.1526 391.356 98.6829 395.732 91.4133 400.917 85.4966 406.911 80.9327 414.903 74.8476 423.694 71.805 433.285 71.805ZM275.712 71.805C285.942 71.805 294.707 73.7464 302.006 77.6293 309.305 81.5123 314.847 87.1917 318.63 94.6678 322.413 102.144 324.304 111.156 324.304 121.703 324.304 150.391 324.304 179.078 324.304 207.765 324.304 218.313 322.413 227.353 318.63 234.887 314.847 242.421 309.305 248.159 302.006 252.1 294.707 256.041 285.942 258.011 275.712 258.011 265.482 258.011 256.717 256.012 249.418 252.013 242.119 248.014 236.551 242.219 232.714 234.627 228.878 227.035 226.96 217.907 226.96 207.243 226.96 178.73 226.96 150.217 226.96 121.703 226.96 111.156 228.878 102.144 232.714 94.6678 236.551 87.1917 242.119 81.5123 249.418 77.6293 256.717 73.7464 265.482 71.805 275.712 71.805ZM148.324 22.4282C159.939 22.4282 171.554 22.4282 183.169 22.4282 183.169 39.9303 183.169 57.4324 183.169 74.9345 190.788 74.9345 198.408 74.9345 206.027 74.9345 206.027 86.6991 206.027 98.4638 206.027 110.228 198.408 110.228 190.788 110.228 183.169 110.228 183.169 141.813 183.169 173.398 183.169 204.983 183.169 209.504 184.128 213.039 186.046 215.589 187.965 218.139 190.682 219.414 194.198 219.414 198.141 219.414 202.084 219.414 206.027 219.414 206.027 231.7 206.027 243.986 206.027 256.272 200.486 256.272 194.944 256.272 189.403 256.272 175.23 256.272 164.841 252.245 158.234 244.189 151.627 236.133 148.324 224.224 148.324 208.46 148.324 175.716 148.324 142.972 148.324 110.228 143.102 110.228 137.881 110.228 132.659 110.228 132.659 98.4638 132.659 86.6991 132.659 74.9345 137.881 74.9345 143.102 74.9345 148.324 74.9345 148.324 57.4324 148.324 39.9303 148.324 22.4282ZM57.0637 1.44894e-06C68.892 1.44894e-06 78.9621 2.34714 87.2738 7.04141 95.5857 11.7357 101.926 18.6322 106.295 27.731 110.664 36.8297 112.849 47.812 112.849 60.6778 112.849 65.2562 112.849 69.8345 112.849 74.4129 101.18 74.5288 89.5117 74.6447 77.8432 74.7606 77.8432 70.3561 77.8432 65.9516 77.8432 61.5471 77.8432 53.6654 76.0583 47.6092 72.4885 43.3785 68.9186 39.1479 63.7771 37.0326 57.0637 37.0326 50.0306 37.0326 44.6226 39.003 40.8397 42.9439 37.0568 46.8848 35.1653 52.4483 35.1653 59.6346 35.1653 65.0823 35.1653 70.53 35.1653 75.9777 35.1653 81.5412 36.4174 86.2935 38.9216 90.2343 41.4258 94.1752 44.596 97.3916 48.4322 99.8837 52.2684 102.376 57.5432 105.36 64.2566 108.838 65.2156 109.301 66.1481 109.794 67.0538 110.315 67.9596 110.837 68.9453 111.33 70.0109 111.793 70.3306 112.025 70.6769 112.228 71.0499 112.402 71.4228 112.576 71.8224 112.778 72.2487 113.01 81.3064 117.762 88.6059 122.254 94.147 126.485 99.6882 130.715 104.404 136.742 108.293 144.566 112.183 152.39 114.127 162.503 114.127 174.905 114.127 182.265 114.127 189.625 114.127 196.986 114.127 209.967 111.916 221.007 107.494 230.106 103.072 239.205 96.6246 246.131 88.153 250.883 79.6813 255.635 69.4248 258.011 57.3834 258.011 45.2354 258.011 34.8723 255.635 26.2941 250.883 17.7159 246.131 11.189 239.205 6.71339 230.106 4.47559 225.557 2.79725 220.522 1.67835 215.002 1.11891 208.997 0.559476 202.991 3.71932e-05 196.986 3.71932e-05 192.639 3.71932e-05 188.293 3.71932e-05 183.946 11.6152 183.888 23.2304 183.83 34.8456 183.772 34.8456 187.945 34.8456 192.117 34.8456 196.29 34.8456 204.056 36.817 210.083 40.7598 214.372 44.7025 218.66 50.2437 220.805 57.3834 220.805 64.3099 220.805 69.6646 218.689 73.4475 214.459 77.2304 210.228 79.1219 204.23 79.1219 196.464 79.1219 189.104 79.1219 181.744 79.1219 174.384 79.1219 168.936 77.8165 164.3 75.2058 160.475 72.595 156.65 69.3182 153.433 65.3755 150.825 61.4327 148.217 55.9981 145.117 49.0716 141.524 48.7519 141.408 48.4322 141.263 48.1125 141.089 47.7928 140.915 47.4731 140.77 47.1535 140.654 46.4608 140.307 45.7682 139.959 45.0755 139.611 35.8047 134.743 28.1056 129.875 21.9783 125.007 15.851 120.139 10.6828 113.532 6.47363 105.186 2.26444 96.8411 0.15986 86.4094 0.15986 73.8913 0.15986 69.255 0.15986 64.6187 0.15986 59.9824 0.15986 47.3484 2.37101 36.54 6.7933 27.5571 11.2156 18.5743 17.6892 11.7357 26.2141 7.04141 34.7391 2.34714 45.0222 1.44894e-06 57.0637 1.44894e-06Z" fill="#5E3520" fill-rule="evenodd" transform="matrix(1 0 0 1.00057 358.336 293.167)"/><text fill="#000000" fill-opacity="0" font-family="Arial,Arial_MSFontService,sans-serif" font-size="258.011" x="3.71932e-05" y="225.76">Store</text></g></svg>